<?xml version="1.0" encoding="utf-8"?>
<!-- Generator: Adobe Illustrator 23.1.0, SVG Export Plug-In . SVG Version: 6.00 Build 0)  -->
<svg version="1.1"
	 id="svg2" inkscape:version="0.48.5 r10040" sodipodi:docname="waves_v4.svg" xmlns:cc="http://creativecommons.org/ns#" xmlns:dc="http://purl.org/dc/elements/1.1/" xmlns:inkscape="http://www.inkscape.org/namespaces/inkscape" xmlns:rdf="http://www.w3.org/1999/02/22-rdf-syntax-ns#" xmlns:sodipodi="http://sodipodi.sourceforge.net/DTD/sodipodi-0.dtd" xmlns:svg="http://www.w3.org/2000/svg"
	 xmlns="http://www.w3.org/2000/svg" xmlns:xlink="http://www.w3.org/1999/xlink" x="0px" y="0px" viewBox="0 0 312.3 113.4"
	 style="enable-background:new 0 0 312.3 113.4;" xml:space="preserve">
<style type="text/css">
	.st0{display:none;}
	.st1{display:inline;stroke:#000000;stroke-width:3.679;}
	.st2{display:inline;stroke:#000000;stroke-width:0.6808;}
	.st3{display:inline;stroke:#000000;stroke-width:0.9755;}
	.st4{display:inline;stroke:#000000;stroke-width:1.1799;}
	.st5{display:inline;stroke:#000000;stroke-width:1.6543;}
	.st6{display:inline;stroke:#000000;stroke-width:2.2511;}
	.st7{display:inline;stroke:#000000;stroke-width:4.3838;}
	.st8{display:inline;stroke:#000000;stroke-width:4.8356;}
	.st9{display:inline;stroke:#000000;stroke-width:4.3803;}
	.st10{display:inline;stroke:#000000;stroke-width:3.4122;}
	.st11{display:inline;stroke:#000000;stroke-width:2.5062;}
	.st12{display:inline;stroke:#000000;stroke-width:2.1534;}
	.st13{display:inline;stroke:#000000;stroke-width:1.6605;}
	.st14{display:inline;stroke:#000000;stroke-width:1.1636;}
	.st15{display:inline;fill:#FF0000;stroke:#000000;stroke-width:5.8047;}
	.st16{font-family:'Corbel-Bold';}
	.st17{font-size:27.04px;}
	.st18{font-size:3.5197px;}
	.st19{font-family:'Corbel';}
	.st20{fill:#60BDE8;}
	.st21{fill:#1E64C8;}
</style>
<sodipodi:namedview  bordercolor="#666666" borderopacity="1.0" id="base" inkscape:current-layer="layer2" inkscape:cx="251.186" inkscape:cy="65.223452" inkscape:document-units="px" inkscape:pageopacity="0.0" inkscape:pageshadow="2" inkscape:window-height="1058" inkscape:window-maximized="1" inkscape:window-width="1920" inkscape:window-x="1272" inkscape:window-y="-8" inkscape:zoom="2.8" pagecolor="#ffffff" showgrid="false">
	</sodipodi:namedview>
<g id="layer1" transform="translate(0,-912.36216)" inkscape:groupmode="layer" inkscape:label="Layer 1" class="st0">
</g>
<g id="layer5" transform="translate(0,-912.36216)" inkscape:groupmode="layer" inkscape:label="bars2" class="st0">
	<rect id="rect3015-6" x="56.6" y="446.2" class="st1" width="13.2" height="245.4"/>
	<rect id="rect3015-1-8" x="202.5" y="564.7" class="st2" width="13.2" height="8.4"/>
	<rect id="rect3015-1-7-5" x="173.3" y="560.2" class="st3" width="13.2" height="17.2"/>
	<rect id="rect3015-1-7-4-7" x="144.1" y="556.2" class="st4" width="13.2" height="25.2"/>
	<rect id="rect3015-1-7-4-0-6" x="114.9" y="544" class="st5" width="13.2" height="49.6"/>
	<rect id="rect3015-1-7-4-0-9-18" x="85.7" y="522.9" class="st6" width="13.2" height="91.9"/>
	<rect id="rect3015-1-7-4-0-9-4-9" x="27.4" y="394.7" class="st7" width="13.2" height="348.4"/>
	<rect id="rect3015-1-7-4-0-9-82-2" x="-0.8" y="317.6" class="st8" width="11.1" height="502.4"/>
	<rect id="rect3015-1-7-4-0-9-45-7" x="-31" y="394.9" class="st9" width="13.2" height="347.8"/>
	<rect id="rect3015-1-7-4-0-9-5-9" x="-60.2" y="463.3" class="st10" width="13.2" height="211.1"/>
	<rect id="rect3015-1-7-4-0-9-1-5" x="-89.4" y="511.9" class="st11" width="13.2" height="113.9"/>
	<rect id="rect3015-1-7-4-0-9-7-4" x="-293.6" y="526.8" class="st12" width="13.2" height="84.1"/>
	<rect id="rect3015-1-7-4-0-9-11-3" x="-322.8" y="543.9" class="st13" width="13.2" height="50"/>
	<rect id="rect3015-1-7-4-0-9-52-1" x="-352" y="556.6" class="st14" width="13.2" height="24.5"/>
	<rect id="rect3015-7-2" x="-118.5" y="446.2" class="st1" width="13.2" height="245.4"/>
	<rect id="rect3015-1-7-4-0-9-4-6-3" x="-147.7" y="394.7" class="st7" width="13.2" height="348.4"/>
	<rect id="rect3015-1-7-4-0-9-82-1-3" x="-175.9" y="317.6" class="st8" width="11.1" height="502.4"/>
	<rect id="rect3015-1-7-4-0-9-45-4-4" x="-206.1" y="394.9" class="st9" width="13.2" height="347.8"/>
	<rect id="rect3015-1-7-4-0-9-5-2-1" x="-235.3" y="463.3" class="st10" width="13.2" height="211.1"/>
	<rect id="rect3015-1-7-4-0-9-1-3-1" x="-264.5" y="511.9" class="st11" width="13.2" height="113.9"/>
	<rect id="rect2997-3" x="234.4" y="568.7" class="st15" width="613.5" height="0.8"/>
</g>
<g id="layer2" transform="translate(0,-912.36216)" inkscape:groupmode="layer" inkscape:label="bars">
	<rect id="rect2997" x="112" y="987.9" width="74.2" height="0.5"/>
	<rect id="rect3015" x="206.6" y="972.6" width="1.6" height="30.9"/>
	<rect id="rect3015-1" x="188.2" y="987.5" width="1.6" height="1"/>
	<rect id="rect3015-1-7" x="191.9" y="987" width="1.6" height="2.1"/>
	<rect id="rect3015-1-7-4" x="195.6" y="986.5" width="1.6" height="3.2"/>
	<rect id="rect3015-1-7-4-0" x="199.3" y="984.9" width="1.6" height="6.2"/>
	<rect id="rect3015-1-7-4-0-9" x="202.9" y="982.3" width="1.6" height="11.5"/>
	<rect id="rect3015-1-7-4-0-9-4" x="210.3" y="966.1" width="1.6" height="43.8"/>
	<rect id="rect3015-1-7-4-0-9-82" x="214" y="956.5" width="1.4" height="63.1"/>
	<rect id="rect3015-1-7-4-0-9-45" x="217.6" y="966.2" width="1.6" height="43.7"/>
	<rect id="rect3015-1-7-4-0-9-5" x="221.3" y="974.8" width="1.6" height="26.5"/>
	<rect id="rect3015-1-7-4-0-9-1" x="224.9" y="980.9" width="1.6" height="14.3"/>
	<rect id="rect3015-1-7-4-0-9-7" x="250.6" y="982.8" width="1.6" height="10.6"/>
	<rect id="rect3015-1-7-4-0-9-11" x="254.3" y="984.9" width="1.6" height="6.3"/>
	<rect id="rect3015-1-7-4-0-9-52" x="258" y="986.5" width="1.6" height="3.1"/>
	<rect id="rect3015-7" x="228.6" y="972.6" width="1.6" height="30.9"/>
	<rect id="rect3015-1-7-4-0-9-4-6" x="232.3" y="966.1" width="1.6" height="43.8"/>
	<rect id="rect3015-1-7-4-0-9-82-1" x="236.1" y="956.5" width="1.4" height="63.1"/>
	<rect id="rect3015-1-7-4-0-9-45-4" x="239.6" y="966.2" width="1.6" height="43.7"/>
	<rect id="rect3015-1-7-4-0-9-5-2" x="243.3" y="974.8" width="1.6" height="26.5"/>
	<rect id="rect3015-1-7-4-0-9-1-3" x="246.9" y="980.9" width="1.6" height="14.3"/>
</g>
<g id="layer3" transform="translate(0,-912.36216)" inkscape:groupmode="layer" inkscape:label="text">
	<text transform="matrix(1.0265 0 0 1 128.8212 980.9314)" class="st16 st17">waves</text>
</g>
<g id="layer4" transform="translate(0,-912.36216)" inkscape:groupmode="layer" inkscape:label="subtext">
	<text transform="matrix(1 0 0 1 111.5888 986.4607)" class="st16 st18">w</text>
	<text transform="matrix(1 0 0 1 114.2255 986.4607)" class="st19 st18">ireless, </text>
	<text transform="matrix(1 0 0 1 125.0175 986.4607)" class="st16 st18">a</text>
	<text transform="matrix(1 0 0 1 126.829 986.4607)" class="st19 st18">coustics, en</text>
	<text transform="matrix(1 0 0 1 143.7392 986.4607)" class="st16 st18">v</text>
	<text transform="matrix(1 0 0 1 145.4677 986.4607)" class="st19 st18">ironment &amp; </text>
	<text transform="matrix(1 0 0 1 162.706 986.4607)" class="st16 st18">e</text>
	<text transform="matrix(1 0 0 1 164.5107 986.4607)" class="st19 st18">xpert </text>
	<text transform="matrix(1 0 0 1 172.8378 986.4607)" class="st16 st18">s</text>
	<text transform="matrix(1 0 0 1 174.329 986.4607)" class="st19 st18">ystems</text>
</g>
<g>
	<path class="st20" d="M146.6,34.7h2.6l-0.5-2c-0.3-1-0.6-2.5-0.8-3.8c-0.2,1.3-0.6,2.8-0.8,3.8L146.6,34.7L146.6,34.7z M147,26.9
		h1.7l3.2,11.9h-1.8l-0.7-2.7h-3.2l-0.7,2.7h-1.7L147,26.9L147,26.9z"/>
	<path class="st20" d="M153.3,26.9h1.9l3.8,9.5c-0.1-1-0.2-2.1-0.2-3.2v-6.3h1.6v11.9h-1.9l-3.8-9.5c0.1,1,0.3,2.1,0.3,3.2v6.3h-1.6
		V26.9L153.3,26.9z"/>
	<path class="st20" d="M164.7,28.3v9.1h1.3c1.7,0,2.2-0.8,2.2-4.6c0-3.8-0.5-4.6-2.2-4.6H164.7L164.7,28.3z M163,26.9h3.1
		c3.1,0,3.8,1.7,3.8,6c0,4.2-0.8,6-3.8,6H163V26.9L163,26.9z"/>
	<path class="st20" d="M177,34.7h2.6l-0.5-2c-0.3-1-0.6-2.5-0.8-3.8c-0.2,1.3-0.6,2.8-0.8,3.8L177,34.7L177,34.7z M177.5,26.9h1.7
		l3.2,11.9h-1.8l-0.7-2.7h-3.2l-0.7,2.7h-1.7L177.5,26.9L177.5,26.9z"/>
	<path class="st20" d="M185.4,28.3v4.2h0.9c1.3,0,2.2-0.3,2.2-2.1c0-1.8-0.9-2.1-2.2-2.1H185.4L185.4,28.3z M183.7,26.9h2.7
		c2.2,0,3.8,0.8,3.8,3.5c0,1.9-0.9,2.8-2.1,3.2l2.5,5.2h-1.9l-2.2-4.9h-1.1v4.9h-1.7V26.9L183.7,26.9z"/>
	<path class="st20" d="M191.9,32.9c0-4.5,1-6.2,3.9-6.2c0.9,0,1.7,0.2,2.1,0.4v1.6c-0.4-0.2-1.2-0.5-1.9-0.5c-1.7,0-2.2,0.8-2.2,4.7
		c0,3.9,0.5,4.7,2.2,4.7c0.8,0,1.6-0.3,2.1-0.5v1.6c-0.4,0.2-1.3,0.5-2.1,0.5C192.7,39.1,191.9,37.3,191.9,32.9L191.9,32.9z"/>
	<polygon class="st20" points="205.2,33.4 201.6,33.4 201.6,38.8 199.9,38.8 199.9,26.9 201.6,26.9 201.6,32 205.2,32 205.2,26.9 
		206.9,26.9 206.9,38.8 205.2,38.8 205.2,33.4 	"/>
	<polygon class="st20" points="209.5,26.9 211.2,26.9 211.2,38.8 209.5,38.8 209.5,26.9 	"/>
	<polygon class="st20" points="212.6,26.9 219.5,26.9 219.5,28.3 216.9,28.3 216.9,38.8 215.2,38.8 215.2,28.3 212.6,28.3 
		212.6,26.9 	"/>
	<polygon class="st20" points="220.9,26.9 226.5,26.9 226.5,28.3 222.6,28.3 222.6,32 225.7,32 225.7,33.4 222.6,33.4 222.6,37.4 
		226.5,37.4 226.5,38.8 220.9,38.8 220.9,26.9 	"/>
	<path class="st20" d="M227.9,32.9c0-4.5,1-6.2,3.9-6.2c0.9,0,1.7,0.2,2.1,0.4v1.6c-0.4-0.2-1.2-0.5-1.9-0.5c-1.7,0-2.2,0.8-2.2,4.7
		c0,3.9,0.5,4.7,2.2,4.7c0.8,0,1.6-0.3,2.1-0.5v1.6c-0.4,0.2-1.3,0.5-2.1,0.5C228.7,39.1,227.9,37.3,227.9,32.9L227.9,32.9z"/>
	<polygon class="st20" points="234.9,26.9 241.7,26.9 241.7,28.3 239.1,28.3 239.1,38.8 237.4,38.8 237.4,28.3 234.9,28.3 
		234.9,26.9 	"/>
	<path class="st20" d="M243,35.2v-8.3h1.7v8.4c0,1.8,0.6,2.3,1.8,2.3c1.2,0,1.8-0.5,1.8-2.3v-8.4h1.7v8.3c0,2.7-1.1,3.8-3.5,3.8
		C244.1,39,243,38,243,35.2L243,35.2z"/>
	<path class="st20" d="M254.3,28.3v4.2h0.9c1.3,0,2.2-0.3,2.2-2.1c0-1.8-0.9-2.1-2.2-2.1H254.3L254.3,28.3z M252.6,26.9h2.8
		c2.2,0,3.8,0.8,3.8,3.5c0,1.9-0.9,2.8-2.1,3.2l2.5,5.2h-1.9l-2.2-4.9h-1.1v4.9h-1.7V26.9L252.6,26.9z"/>
	<polygon class="st20" points="261.4,26.9 266.9,26.9 266.9,28.3 263.1,28.3 263.1,32 266.2,32 266.2,33.4 263.1,33.4 263.1,37.4 
		266.9,37.4 266.9,38.8 261.4,38.8 261.4,26.9 	"/>
	<polygon class="st20" points="145.2,10.1 150.6,10.1 150.6,11.5 146.9,11.5 146.9,15.2 149.8,15.2 149.8,16.6 146.9,16.6 146.9,22 
		145.2,22 145.2,10.1 	"/>
	<path class="st20" d="M153.1,17.9h2.6l-0.5-2c-0.3-1-0.6-2.5-0.8-3.8c-0.2,1.3-0.6,2.8-0.8,3.8L153.1,17.9L153.1,17.9z M153.5,10.1
		h1.7l3.2,11.9h-1.8l-0.7-2.7h-3.2l-0.7,2.7h-1.7L153.5,10.1L153.5,10.1z"/>
	<path class="st20" d="M159.3,16.1c0-4.5,1-6.2,3.9-6.2c0.9,0,1.7,0.2,2.1,0.4v1.6c-0.4-0.2-1.2-0.5-1.9-0.5c-1.7,0-2.2,0.8-2.2,4.7
		c0,3.9,0.5,4.7,2.2,4.7c0.8,0,1.6-0.3,2.1-0.5v1.6c-0.4,0.2-1.3,0.5-2.1,0.5C160.1,22.2,159.3,20.5,159.3,16.1L159.3,16.1z"/>
	<path class="st20" d="M167,18.4v-8.3h1.7v8.4c0,1.8,0.6,2.3,1.8,2.3c1.2,0,1.8-0.5,1.8-2.3v-8.4h1.7v8.3c0,2.7-1.1,3.8-3.5,3.8
		C168.1,22.2,167,21.2,167,18.4L167,18.4z"/>
	<polygon class="st20" points="176.6,10.1 178.3,10.1 178.3,20.6 182,20.6 182,22 176.6,22 176.6,10.1 	"/>
	<polygon class="st20" points="181.4,10.1 188.2,10.1 188.2,11.5 185.6,11.5 185.6,22 183.9,22 183.9,11.5 181.4,11.5 181.4,10.1 	
		"/>
	<path class="st20" d="M192.1,17.1l-3.3-7h1.8l1.4,3.2c0.3,0.8,0.6,1.6,0.8,2.3c0.2-0.7,0.6-1.6,0.9-2.3l1.4-3.2h1.8l-3.2,7V22h-1.7
		V17.1L192.1,17.1z"/>
	<path class="st20" d="M206.7,16.1c0-3.7-0.4-4.7-1.9-4.7c-1.5,0-1.9,1-1.9,4.7c0,3.7,0.4,4.7,1.9,4.7
		C206.4,20.8,206.7,19.8,206.7,16.1L206.7,16.1z M201.2,16.1c0-4.9,1.2-6.2,3.6-6.2c2.5,0,3.7,1.2,3.7,6.2c0,4.9-1.2,6.2-3.7,6.2
		C202.3,22.2,201.2,21.1,201.2,16.1L201.2,16.1z"/>
	<polygon class="st20" points="210.7,10.1 216.1,10.1 216.1,11.5 212.4,11.5 212.4,15.2 215.3,15.2 215.3,16.6 212.4,16.6 212.4,22 
		210.7,22 210.7,10.1 	"/>
	<polygon class="st20" points="221.2,10.1 226.8,10.1 226.8,11.5 222.9,11.5 222.9,15.2 226.1,15.2 226.1,16.6 222.9,16.6 
		222.9,20.6 226.8,20.6 226.8,22 221.2,22 221.2,10.1 	"/>
	<path class="st20" d="M229,10.1h1.9l3.8,9.5c-0.1-1-0.2-2.1-0.2-3.2v-6.3h1.6V22h-1.9l-3.8-9.5c0.1,1,0.3,2.1,0.3,3.2V22H229V10.1
		L229,10.1z"/>
	<path class="st20" d="M238.3,16.1c0-4.7,1.2-6.2,4.3-6.2c0.9,0,1.8,0.2,2.2,0.5v1.6c-0.4-0.3-1.3-0.5-2.1-0.5c-2,0-2.7,0.7-2.7,4.7
		c0,3.9,0.5,4.7,2.3,4.7c0.5,0,1-0.1,1.3-0.2v-4h-1.8v-1.4h3.4v6.4c-0.3,0.2-1.7,0.6-3,0.6C239.1,22.2,238.3,20.5,238.3,16.1
		L238.3,16.1z"/>
	<polygon class="st20" points="247.8,10.1 249.5,10.1 249.5,22 247.8,22 247.8,10.1 	"/>
	<path class="st20" d="M252.1,10.1h1.9l3.8,9.5c-0.1-1-0.2-2.1-0.2-3.2v-6.3h1.6V22h-1.9l-3.8-9.5c0.1,1,0.3,2.1,0.3,3.2V22h-1.6
		V10.1L252.1,10.1z"/>
	<polygon class="st20" points="261.8,10.1 267.4,10.1 267.4,11.5 263.5,11.5 263.5,15.2 266.7,15.2 266.7,16.6 263.5,16.6 
		263.5,20.6 267.4,20.6 267.4,22 261.8,22 261.8,10.1 	"/>
	<polygon class="st20" points="269.6,10.1 275.2,10.1 275.2,11.5 271.3,11.5 271.3,15.2 274.4,15.2 274.4,16.6 271.3,16.6 
		271.3,20.6 275.2,20.6 275.2,22 269.6,22 269.6,10.1 	"/>
	<path class="st20" d="M279.1,11.5v4.2h0.9c1.3,0,2.2-0.3,2.2-2.1c0-1.8-0.9-2.1-2.2-2.1H279.1L279.1,11.5z M277.4,10.1h2.7
		c2.2,0,3.8,0.8,3.8,3.5c0,1.9-0.9,2.8-2.1,3.2l2.5,5.2h-1.9l-2.2-4.9h-1.1V22h-1.7V10.1L277.4,10.1z"/>
	<polygon class="st20" points="286.2,10.1 287.9,10.1 287.9,22 286.2,22 286.2,10.1 	"/>
	<path class="st20" d="M290.6,10.1h1.9l3.8,9.5c-0.1-1-0.2-2.1-0.2-3.2v-6.3h1.6V22h-1.9l-3.8-9.5c0.1,1,0.3,2.1,0.3,3.2V22h-1.6
		V10.1L290.6,10.1z"/>
	<path class="st20" d="M299.8,16.1c0-4.7,1.2-6.2,4.3-6.2c0.9,0,1.8,0.2,2.2,0.5v1.6c-0.4-0.3-1.3-0.5-2.1-0.5c-2,0-2.7,0.7-2.7,4.7
		c0,3.9,0.5,4.7,2.3,4.7c0.5,0,1-0.1,1.3-0.2v-4h-1.8v-1.4h3.4v6.4c-0.3,0.2-1.7,0.6-3,0.6C300.6,22.2,299.8,20.5,299.8,16.1
		L299.8,16.1z"/>
	<polygon class="st20" points="116.4,38.8 118.1,38.8 118.1,33.8 116.4,33.8 116.4,38.8 	"/>
	<polygon class="st20" points="119.8,38.8 121.5,38.8 121.5,27.7 119.8,27.7 119.8,38.8 	"/>
	<polygon class="st20" points="123.2,38.8 124.9,38.8 124.9,21.6 123.2,21.6 123.2,38.8 	"/>
	<polygon class="st20" points="127.7,10.1 126.6,10.1 126.6,38.8 128.2,38.8 128.2,13 137.7,22.5 137.7,38.8 139.4,38.8 139.4,21.8 
		127.7,10.1 	"/>
</g>
<g>
	<polygon class="st21" points="24.7,25.9 22.6,25.9 22.6,39.3 24.7,39.3 24.7,25.9 	"/>
	<polygon class="st21" points="20.6,25.9 18.5,25.9 18.5,39.3 20.6,39.3 20.6,25.9 	"/>
	<polygon class="st21" points="16.4,25.9 14.4,25.9 14.4,39.3 16.4,39.3 16.4,25.9 	"/>
	<polygon class="st21" points="12.3,25.9 10.2,25.9 10.2,39.3 12.3,39.3 12.3,25.9 	"/>
	<polygon class="st21" points="28.9,25.9 26.8,25.9 26.8,39.3 28.9,39.3 28.9,25.9 	"/>
	<polygon class="st21" points="33,25.9 30.9,25.9 30.9,39.3 33,39.3 33,25.9 	"/>
	<polygon class="st21" points="37.1,25.9 35.1,25.9 35.1,39.3 37.1,39.3 37.1,25.9 	"/>
	<polygon class="st21" points="39.3,43.5 8.1,43.5 8.1,41.4 39.3,41.4 39.3,43.5 	"/>
	<polygon class="st21" points="37.1,23.8 10.2,23.8 8.1,21.7 39.2,21.7 37.1,23.8 	"/>
	<polygon class="st21" points="41.3,47.6 6,47.6 6,45.6 41.3,45.6 41.3,47.6 	"/>
	<polygon class="st21" points="41.3,18.4 23.7,12.1 6,18.4 6,20.6 23.7,14.3 41.3,20.6 41.3,18.4 	"/>
	<polygon class="st21" points="23.2,63.9 18.7,63.9 18.7,70.6 16.6,70.6 16.6,55.9 18.7,55.9 18.7,62.2 23.2,62.2 23.2,55.9 
		25.2,55.9 25.2,70.6 23.2,70.6 23.2,63.9 	"/>
	<path class="st21" d="M68.6,78.1c0.9,0,1.8,0.3,2.2,0.6v-1.9c-0.4-0.2-1.4-0.5-2.4-0.5c-2.8,0-4.3,1.6-4.3,3.8
		c0,1.9,0.8,2.8,2.1,3.9l1.2,1c1,0.8,1.6,1.4,1.6,2.7c0,1.4-0.9,2-2.4,2c-1.1,0-2-0.3-2.5-0.7V91c0.5,0.3,1.4,0.5,2.7,0.5
		c2.7,0,4.3-1.6,4.3-3.8c0-1.9-0.8-2.8-2.1-3.9l-1.2-1c-1-0.8-1.6-1.4-1.6-2.7C66.2,78.7,67.2,78.1,68.6,78.1L68.6,78.1z"/>
	<path class="st21" d="M55.8,78.3v5.2h1.1c1.6,0,2.7-0.3,2.7-2.6c0-2.2-1.1-2.6-2.7-2.6H55.8L55.8,78.3z M53.8,76.6h3.4
		c2.7,0,4.6,1,4.6,4.3c0,2.3-1.1,3.4-2.5,4l3.1,6.4H60l-2.8-6h-1.4v6h-2.1V76.6L53.8,76.6z"/>
	<path class="st21" d="M6,86.8V76.6h2.1v10.3c0,2.2,0.7,2.8,2.3,2.8c1.5,0,2.3-0.6,2.3-2.8V76.6h2.1v10.2c0,3.3-1.4,4.7-4.3,4.7
		C7.4,91.5,6,90.2,6,86.8L6,86.8z"/>
	<path class="st21" d="M17.4,76.6h2.4l4.6,11.7c-0.2-1.2-0.3-2.6-0.3-3.9v-7.8h2v14.7h-2.4L19,79.5c0.2,1.2,0.3,2.6,0.3,3.9v7.8h-2
		V76.6L17.4,76.6z"/>
	<polygon class="st21" points="29,76.6 31.1,76.6 31.1,91.2 29,91.2 29,76.6 	"/>
	<path class="st21" d="M33,76.6h2.2l1.8,7.6c0.3,1.2,0.6,3.1,0.8,4.6c0.2-1.5,0.5-3.5,0.9-4.6l1.8-7.6h2.1l-3.7,14.7h-2.2L33,76.6
		L33,76.6z"/>
	<polygon class="st21" points="44.5,76.6 51.4,76.6 51.4,78.4 46.6,78.4 46.6,82.8 50.4,82.8 50.4,84.6 46.6,84.6 46.6,89.5 
		51.4,89.5 51.4,91.2 44.5,91.2 44.5,76.6 	"/>
	<polygon class="st21" points="73.5,76.6 75.6,76.6 75.6,91.2 73.5,91.2 73.5,76.6 	"/>
	<path class="st21" d="M5.6,63.2c0-5.8,1.5-7.6,5.3-7.6c1.1,0,2.2,0.3,2.7,0.6v1.9c-0.5-0.3-1.6-0.7-2.6-0.7c-2.4,0-3.4,0.9-3.4,5.7
		c0,4.8,0.7,5.8,2.8,5.8c0.7,0,1.2-0.1,1.6-0.2v-4.9H9.9v-1.8h4.2v7.9c-0.4,0.3-2.1,0.7-3.7,0.7C6.5,70.8,5.6,68.8,5.6,63.2
		L5.6,63.2z"/>
	<polygon class="st21" points="28.2,55.9 35,55.9 35,57.7 30.2,57.7 30.2,62.2 34.1,62.2 34.1,63.9 30.2,63.9 30.2,68.8 35,68.8 
		35,70.6 28.2,70.6 28.2,55.9 	"/>
	<path class="st21" d="M37.4,55.9h2.4l4.6,11.7c-0.2-1.2-0.3-2.6-0.3-3.9v-7.8h2v14.7h-2.4l-4.7-11.7c0.2,1.2,0.3,2.6,0.3,3.9v7.8
		h-2V55.9L37.4,55.9z"/>
	<polygon class="st21" points="48,55.9 56.4,55.9 56.4,57.7 53.3,57.7 53.3,70.6 51.2,70.6 51.2,57.7 48,57.7 48,55.9 	"/>
	<path class="st21" d="M90.8,85.2l-4-8.6h2.3l1.7,3.9c0.4,0.9,0.8,2,1,2.9c0.3-0.9,0.7-1.9,1.1-2.9l1.7-3.9h2.2l-4,8.6v6.1h-2.1
		V85.2L90.8,85.2z"/>
	<polygon class="st21" points="77.6,76.6 86,76.6 86,78.4 82.8,78.4 82.8,91.2 80.7,91.2 80.7,78.4 77.6,78.4 77.6,76.6 	"/>
</g>
</svg>
